# xmcd
#
# Track frame offsets: 
#        150
#        22392
#        42823
#        80814
#        103634
#        118270
#        138464
#        157681
#        172883
#        189079
#        211956
#        243741
#        264258
#        287649
#        305731
#        328238
#
# Disc length: 4764 seconds
#
# Revision: 0
# Processed by: cddbd v1.5.2PL0 Copyright (c) Steve Scherf et al.
# Submitted via: ExactAudioCopy v1.1
#
DISCID=e5129a10
DTITLE=Various Artist - Akella Presents - vol.102 - Black Pure Blues 
DTITLE=CD1
DYEAR=2017
DGENRE=Blues
TTITLE0=Preston Shannon - I Might Be Your Husband
TTITLE1=Lil' Dave Thompson - Caught Up In A Crossfire
TTITLE2=Buddy Guy - Five Long Years
TTITLE3=Wallace Johnson - This Night Belongs to You
TTITLE4=Chris Beard - Let the Chips Fall
TTITLE5=Skeeter Brandon - It's Good To Go
TTITLE6=Johnny Charles - In The Groove
TTITLE7=Terry Evans - Too Many Cooks
TTITLE8=Roy Gaines - Stormy Monday
TTITLE9=Troy Turner - Don't Push Your Luck
TTITLE10=J. C. Smith Band - I'll Play The Blues For You
TTITLE11=Big Mojo Elem - Big Fat Mama Blues
TTITLE12=Alabama Mike - Identity Theft
TTITLE13=John Blues Boyd - I Am the Real Deal
TTITLE14=Chick Willis - Goin' To The Dogs
TTITLE15=Sam Lay Blues Band - Eight Feet Baby
EXTD=
EXTT0=
EXTT1=
EXTT2=
EXTT3=
EXTT4=
EXTT5=
EXTT6=
EXTT7=
EXTT8=
EXTT9=
EXTT10=
EXTT11=
EXTT12=
EXTT13=
EXTT14=
EXTT15=
PLAYORDER=
